<svg xmlns="http://www.w3.org/2000/svg" viewBox="0 0 32 32" fill="none">
  <rect width="32" height="32" rx="8" fill="#0a0a12"/>
  <path d="M8 22V10h4.2c2.8 0 4.6 1.5 4.6 3.8 0 1.6-.9 2.8-2.4 3.3L18 22h-3.2l-2.8-4.2H11.2V22H8zm3.2-6.8h1c1.1 0 1.7-.5 1.7-1.3s-.6-1.3-1.7-1.3h-1v2.6zM19.5 22l3.5-12h3.3l3.5 12h-3.3l-.6-2.2h-3.1l-.6 2.2h-3.3zm4.1-4.8l-1-3.6-1 3.6h2z" fill="url(#g)"/>
  <defs>
    <linearGradient id="g" x1="8" y1="10" x2="30" y2="22" gradientUnits="userSpaceOnUse">
      <stop stop-color="#22d3ee"/>
      <stop offset="1" stop-color="#a78bfa"/>
    </linearGradient>
  </defs>
</svg>
